<?xml version="1.0" standalone="no"?>
<!DOCTYPE svg PUBLIC "-//W3C//DTD SVG 20010904//EN"
 "http://www.w3.org/TR/2001/REC-SVG-20010904/DTD/svg10.dtd">
<svg version="1.0" xmlns="http://www.w3.org/2000/svg"
 width="880.000000pt" height="763.000000pt" viewBox="0 0 880.000000 763.000000"
 preserveAspectRatio="xMidYMid meet">
<metadata>
Created by potrace 1.15, written by Peter Selinger 2001-2017
</metadata>
<g transform="translate(0.000000,763.000000) scale(0.100000,-0.100000)"
fill="#000000" stroke="none">
<path d="M4160 6303 c-71 -27 -1953 -749 -2250 -863 -69 -26 -426 -164 -795
-305 -369 -141 -676 -261 -684 -265 -10 -5 -4 -11 20 -18 19 -6 153 -48 299
-93 204 -63 643 -218 863 -304 9 -4 17 -13 17 -19 0 -7 -51 -136 -113 -286
-63 -151 -133 -322 -156 -380 l-42 -105 -56 -25 c-34 -14 -80 -47 -115 -81
-173 -170 -174 -435 -1 -605 52 -51 161 -114 197 -114 13 0 16 -13 16 -72 0
-97 -19 -170 -78 -308 -112 -260 -223 -475 -348 -676 -119 -189 -153 -289
-132 -388 20 -97 133 -171 278 -183 84 -7 194 14 405 77 236 71 305 111 362
208 35 59 42 170 20 292 -9 47 -21 130 -27 185 -15 145 -35 254 -90 490 -53
231 -80 365 -80 400 0 14 7 26 18 30 37 11 132 118 165 184 30 62 32 72 32
176 0 103 -2 114 -32 178 -20 42 -53 88 -88 123 l-55 55 0 67 c0 37 9 105 20
151 43 178 114 313 227 432 59 62 87 83 131 99 32 12 596 215 1255 451 l1199
429 114 -36 c63 -21 111 -40 107 -44 -4 -4 -558 -207 -1230 -451 -672 -244
-1219 -447 -1215 -451 4 -3 275 -92 602 -197 327 -104 793 -253 1034 -331
l439 -140 751 234 c413 129 1280 399 1926 601 646 201 1205 376 1243 388 37
11 64 24 60 28 -5 4 -323 117 -708 252 -1166 409 -2975 1043 -3230 1133 -243
85 -248 87 -275 77z"/>
</g>
</svg>
